<svg width="414" height="246" viewBox="0 0 414 246" fill="none" xmlns="http://www.w3.org/2000/svg">
<g clip-path="url(#clip0_503_1289)">
<path d="M430.499 56.7202L311.731 90.6655L310.325 85.7476L429.094 51.8022" fill="currentColor"/>
<path opacity="0.2" d="M325.899 81.2965L326.321 86.4956L311.731 90.6655L310.325 85.7476L325.899 81.2965Z" fill="black"/>
<path d="M262.7 70.1896L254.094 72.6494L271.219 132.567L279.825 130.107L262.7 70.1896Z" fill="currentColor"/>
<path d="M255.441 77.0521L222.818 86.376L237.226 136.785L269.848 127.461L255.441 77.0521Z" fill="currentColor"/>
<path opacity="0.2" d="M255.359 77.0758L269.766 127.485L261.652 129.804L243.638 80.4258L255.359 77.0758Z" fill="black"/>
<path d="M227.55 102.933L202.469 110.102C200.666 110.617 198.851 109.54 198.359 107.819L198.054 106.753C197.539 104.95 198.616 103.135 200.337 102.643L225.337 95.4978L227.469 102.957L227.55 102.933Z" fill="#DBDBDB"/>
<path d="M225.313 95.4157L216.543 97.9224L218.698 105.463L227.468 102.957L225.313 95.4157Z" fill="#A6A6A6"/>
<path d="M234.649 127.769L209.567 134.938C207.764 135.453 205.949 134.376 205.457 132.655L205.152 131.589C204.637 129.786 205.714 127.971 207.435 127.479L232.435 120.334L234.567 127.793L234.649 127.769Z" fill="#DBDBDB"/>
<path d="M232.411 120.252L223.641 122.758L225.796 130.299L234.567 127.793L232.411 120.252Z" fill="#A6A6A6"/>
<path d="M320.453 80.5478L294.962 87.8335L297.844 97.9153L323.335 90.6296L320.453 80.5478Z" fill="currentColor"/>
<path d="M320.453 80.5478L294.962 87.8335L297.844 97.9153L323.335 90.6296L320.453 80.5478Z" fill="currentColor"/>
<path opacity="0.2" d="M303.896 85.28L305.935 95.5141L297.82 97.8334L294.962 87.8335L303.896 85.28Z" fill="black"/>
<path d="M297.997 117.377L277.834 123.14L264.504 76.501L284.668 70.738C287.455 69.9415 290.406 71.5806 291.202 74.3674L301.65 110.924C302.341 113.653 300.784 116.58 297.997 117.377Z" fill="currentColor"/>
<path opacity="0.2" d="M275.242 73.4321L284.883 121.125L277.834 123.14L264.504 76.501L275.242 73.4321Z" fill="black"/>
<g opacity="0.2">
<path opacity="0.2" d="M276.05 83.3967L274.411 83.8652L282.353 111.652L283.992 111.183L276.05 83.3967Z" fill="black"/>
<path opacity="0.2" d="M280.641 82.0847L279.001 82.5532L286.943 110.34L288.582 109.871L280.641 82.0847Z" fill="black"/>
<path opacity="0.2" d="M285.149 80.7961L283.509 81.2646L291.451 109.051L293.09 108.583L285.149 80.7961Z" fill="black"/>
</g>
<path d="M-53.1939 189.645L82.7877 150.78L84.1933 155.698L-51.7883 194.563" fill="currentColor"/>
<path opacity="0.2" d="M82.7877 150.78L84.1933 155.698L67.2264 160.547L64.8372 155.911L82.7877 150.78Z" fill="black"/>
<path d="M166.127 163.991L175.144 161.415L157.105 98.3007L148.089 100.878L166.127 163.991Z" fill="currentColor"/>
<path d="M148.99 103.842L114.646 113.658L130.788 170.132L165.131 160.317L148.99 103.842Z" fill="currentColor"/>
<path opacity="0.2" d="M148.99 103.842L165.131 160.317L156.607 162.753L136.613 107.379L148.99 103.842Z" fill="black"/>
<path d="M72.1782 161.918L97.6697 154.632L94.7882 144.55L69.2968 151.836L72.1782 161.918Z" fill="currentColor"/>
<path d="M94.7427 144.526L69.2512 151.812L72.1327 161.894L97.6241 154.608L94.7427 144.526Z" fill="currentColor"/>
<path opacity="0.2" d="M88.6897 157.162L86.6279 146.846L94.7425 144.527L97.624 154.608L88.6897 157.162Z" fill="black"/>
<path d="M94.3192 123.812L115.794 117.674L129.827 166.772L108.352 172.909C105.565 173.706 102.614 172.067 101.817 169.28L90.6663 130.264C89.8698 127.477 91.5324 124.608 94.3192 123.812Z" fill="currentColor"/>
<path opacity="0.2" d="M118.516 170.004L108.335 119.806L115.794 117.674L129.827 166.772L118.516 170.004Z" fill="black"/>
<g opacity="0.2">
<path opacity="0.2" d="M117.639 159.503L119.36 159.011L110.997 129.749L109.276 130.241L117.639 159.503Z" fill="black"/>
<path opacity="0.2" d="M112.795 160.887L114.516 160.395L106.153 131.133L104.432 131.625L112.795 160.887Z" fill="black"/>
<path opacity="0.2" d="M108.033 162.248L109.754 161.756L101.391 132.494L99.6693 132.986L108.033 162.248Z" fill="black"/>
</g>
<path d="M185.616 78.7446C185.37 78.8149 185.159 78.6978 185.089 78.4519L181.786 66.8947C181.715 66.6488 181.832 66.438 182.078 66.3677C182.324 66.2974 182.535 66.4145 182.605 66.6604L185.908 78.2176C185.955 78.3816 185.862 78.6743 185.616 78.7446Z" fill="#878787"/>
<path d="M166.366 90.1869C166.202 90.2337 166.097 90.1752 165.968 90.0347L157.372 81.6747C157.243 81.5342 157.173 81.2883 157.372 81.0541C157.512 80.9253 157.758 80.855 157.993 81.054L166.588 89.414C166.717 89.5545 166.787 89.8004 166.588 90.0346C166.448 90.1634 166.448 90.1634 166.366 90.1869Z" fill="#878787"/>
<path d="M183.88 174.109C183.798 174.133 183.716 174.156 183.692 174.074C183.505 174.039 183.353 173.816 183.364 173.547L186.244 161.907C186.279 161.72 186.501 161.568 186.771 161.579C186.958 161.615 187.11 161.837 187.099 162.106L184.219 173.746C184.102 173.957 183.961 174.086 183.88 174.109Z" fill="#878787"/>
<path d="M212.498 173.732C212.252 173.802 212.041 173.685 211.971 173.439L208.668 161.882C208.598 161.636 208.715 161.425 208.961 161.355C209.207 161.285 209.417 161.402 209.488 161.648L212.791 173.205C212.861 173.451 212.744 173.662 212.498 173.732Z" fill="#878787"/>
<path d="M237.122 159.069C236.958 159.116 236.853 159.057 236.724 158.917L228.129 150.557C228 150.416 227.929 150.17 228.128 149.936C228.269 149.807 228.515 149.737 228.749 149.936L237.345 158.296C237.474 158.436 237.544 158.682 237.345 158.916C237.286 159.022 237.204 159.045 237.122 159.069Z" fill="#878787"/>
<path d="M208.133 78.4265C208.052 78.4499 207.97 78.4734 207.864 78.4148C207.677 78.3797 207.525 78.1572 207.536 77.8879L210.416 66.2482C210.451 66.0608 210.673 65.9086 210.943 65.9203C211.13 65.9554 211.282 66.1779 211.271 66.4472L208.391 78.0869C208.356 78.2743 208.215 78.4031 208.133 78.4265Z" fill="#878787"/>
</g>
<defs>
<clipPath id="clip0_503_1289">
<rect width="501.6" height="111.59" fill="white" transform="translate(-68 137.843) rotate(-15.9505)"/>
</clipPath>
</defs>
</svg>
