<svg width="138" height="49" viewBox="0 0 138 49" fill="none" xmlns="http://www.w3.org/2000/svg">
<g opacity="0.3">
<path d="M8.48512 40.3806L8.4851 40.3807L8.49182 40.3846C10.6866 41.6589 13.1573 42.2902 15.8873 42.2902C18.6493 42.2902 21.1372 41.6597 23.3332 40.3846L23.3332 40.3846L23.3399 40.3806C25.5224 39.0781 27.2507 37.3148 28.5176 35.099C29.8251 32.8713 30.4734 30.3671 30.4734 27.6031C30.4734 24.8497 29.8805 22.3687 28.6795 20.1764C27.518 17.9611 25.9099 16.2089 23.8579 14.9345C21.7955 13.6197 19.4691 12.9664 16.8972 12.9664C14.817 12.9664 12.883 13.4078 11.1053 14.2961C9.87992 14.8966 8.77736 15.6573 7.79928 16.5767V4.57546C7.79928 3.65924 7.51503 2.86116 6.90239 2.24852C6.28975 1.63588 5.49168 1.35163 4.57546 1.35163C3.68356 1.35163 2.89881 1.64106 2.2646 2.233L2.25643 2.24062L2.24852 2.24852C1.63588 2.86116 1.35163 3.65924 1.35163 4.57546V27.6031H1.35158L1.35169 27.6113C1.38662 30.3709 2.03418 32.8708 3.30553 35.0956C4.5726 37.313 6.30148 39.0775 8.48512 40.3806ZM23.098 32.135L23.0979 32.1349L23.0924 32.1452C22.3706 33.4947 21.389 34.5527 20.1441 35.332C18.9087 36.0719 17.4959 36.4485 15.8873 36.4485C14.3161 36.4485 12.9011 36.0737 11.6275 35.3301C10.384 34.551 9.40337 33.4936 8.68212 32.1452C7.96241 30.7996 7.59728 29.2902 7.59728 27.6031C7.59728 25.8798 7.96342 24.3734 8.67908 23.0666C9.39966 21.7507 10.3802 20.7253 11.6254 19.9782L11.6254 19.9782L11.6294 19.9758C12.9037 19.1987 14.3179 18.8081 15.8873 18.8081C17.493 18.8081 18.9038 19.2 20.1391 19.972L20.139 19.9721L20.1491 19.9782C21.3944 20.7253 22.3749 21.7507 23.0955 23.0666L23.0954 23.0666L23.1012 23.0768C23.8469 24.3818 24.2277 25.8845 24.2277 27.6031C24.2277 29.2854 23.848 30.7913 23.098 32.135ZM40.832 38.9654V31.5402L42.621 29.9435L51.7993 41.2921L51.8003 41.2932C52.3394 41.9567 53.0375 42.3414 53.8699 42.3894C54.7126 42.47 55.4825 42.2298 56.1463 41.6905L56.1496 41.6878C56.8239 41.1325 57.2424 40.4424 57.2928 39.6234C57.3749 38.8041 57.1275 38.0515 56.5941 37.395L47.2112 25.8468L56.0176 17.987L56.023 17.9822L56.0283 17.9772C56.6373 17.4088 56.997 16.7196 57.0412 15.9232C57.0859 15.1196 56.7879 14.3998 56.2195 13.7871C55.6734 13.1613 54.976 12.8088 54.1564 12.7654C53.3518 12.7209 52.6313 13.0201 52.0181 13.5902L40.832 23.5738V4.47446C40.832 3.59186 40.5472 2.82576 39.9354 2.24827C39.3579 1.63646 38.5918 1.35163 37.7092 1.35163C36.8175 1.35163 36.0397 1.64156 35.4328 2.24852C34.8501 2.8312 34.5864 3.59807 34.5864 4.47446V38.9654C34.5864 39.8431 34.8502 40.6151 35.4161 41.2245L35.4325 41.2421L35.4501 41.2585C36.0595 41.8243 36.8315 42.0882 37.7092 42.0882C38.5856 42.0882 39.3525 41.8245 39.9351 41.2418C40.5421 40.6348 40.832 39.857 40.832 38.9654ZM95.6292 41.2257L95.6444 41.2421L95.6608 41.2573C96.295 41.8493 97.0798 42.1387 97.9716 42.1387C98.8879 42.1387 99.6859 41.8544 100.299 41.2418L100.306 41.2339L100.314 41.2257C100.906 40.5915 101.195 39.8068 101.195 38.9149V24.4721C101.195 22.0761 100.762 20.0004 99.8634 18.2715C99.003 16.5178 97.7724 15.173 96.171 14.2631C94.5802 13.3592 92.7671 12.9159 90.7503 12.9159C88.4659 12.9159 86.4037 13.4089 84.5803 14.4099L84.5756 14.4126C83.5695 14.9759 82.6866 15.6654 81.9283 16.4792C81.2159 15.574 80.3582 14.8332 79.3548 14.2631C77.764 13.3592 75.9509 12.9159 73.9341 12.9159C71.8406 12.9159 69.9543 13.4141 68.2945 14.4244C67.9394 14.6406 67.6009 14.875 67.2792 15.1276C67.1316 14.752 66.912 14.4122 66.6156 14.1158C66.003 13.5032 65.2049 13.2189 64.2887 13.2189C63.3968 13.2189 62.6121 13.5084 61.9779 14.1003L61.9697 14.1079L61.9618 14.1158C61.3491 14.7285 61.0649 15.5265 61.0649 16.4428V38.9149C61.0649 39.8068 61.3543 40.5915 61.9463 41.2257L61.9615 41.2421L61.9779 41.2573C62.6121 41.8493 63.3968 42.1387 64.2887 42.1387C65.2049 42.1387 66.003 41.8544 66.6156 41.2418L66.6236 41.2339L66.6312 41.2257C67.2231 40.5915 67.5125 39.8068 67.5125 38.9149V25.3225V24.6741C67.5125 22.9309 68.0367 21.549 69.0525 20.4734C70.0679 19.3982 71.3418 18.8586 72.9241 18.8586C74.4617 18.8586 75.6514 19.3295 76.556 20.2342L76.556 20.2342L76.5636 20.2416C77.4327 21.0826 77.9316 22.4456 77.9316 24.4721V38.9149C77.9316 39.8068 78.221 40.5915 78.813 41.2257L78.8282 41.2421L78.8446 41.2573C79.4788 41.8493 80.2635 42.1387 81.1554 42.1387C82.0716 42.1387 82.8697 41.8544 83.4824 41.2418L83.4903 41.2339L83.4979 41.2257C84.0898 40.5915 84.3792 39.8068 84.3792 38.9149V25.3225V24.6741C84.3792 22.9274 84.8889 21.5442 85.8721 20.4698C86.887 19.397 88.1597 18.8586 89.7403 18.8586C91.2779 18.8586 92.4676 19.3295 93.3722 20.2342L93.3722 20.2342L93.3798 20.2416C94.2489 21.0826 94.7478 22.4456 94.7478 24.4721V38.9149C94.7478 39.8068 95.0372 40.5915 95.6292 41.2257Z" fill="currentColor" stroke="currentColor" stroke-width="1.29673"/>
<path d="M109.71 41.3016C108.827 41.3016 108.034 41.0838 107.333 40.6484C106.631 40.2008 106.075 39.602 105.663 38.852C105.264 38.0899 105.065 37.2311 105.065 36.2754C105.065 35.3198 105.282 34.461 105.718 33.6989C106.165 32.9368 106.764 32.338 107.514 31.9025C108.276 31.455 109.129 31.2312 110.073 31.2312C111.016 31.2312 111.863 31.455 112.613 31.9025C113.363 32.338 113.956 32.9368 114.391 33.6989C114.839 34.461 115.062 35.3198 115.062 36.2754H114.355C114.355 37.2311 114.149 38.0899 113.738 38.852C113.339 39.602 112.788 40.2008 112.087 40.6484C111.385 41.0838 110.593 41.3016 109.71 41.3016ZM110.073 39.6685C110.689 39.6685 111.24 39.5234 111.724 39.2331C112.208 38.9307 112.589 38.5254 112.867 38.0174C113.145 37.4972 113.284 36.9166 113.284 36.2754C113.284 35.6222 113.145 35.0416 112.867 34.5335C112.589 34.0134 112.208 33.6081 111.724 33.3178C111.24 33.0154 110.689 32.8642 110.073 32.8642C109.468 32.8642 108.917 33.0154 108.421 33.3178C107.938 33.6081 107.55 34.0134 107.26 34.5335C106.982 35.0416 106.843 35.6222 106.843 36.2754C106.843 36.9166 106.982 37.4972 107.26 38.0174C107.55 38.5254 107.938 38.9307 108.421 39.2331C108.917 39.5234 109.468 39.6685 110.073 39.6685ZM114.137 41.2471C113.871 41.2471 113.647 41.1625 113.466 40.9931C113.296 40.8117 113.212 40.5879 113.212 40.3218V37.5456L113.556 35.6222L115.062 36.2754V40.3218C115.062 40.5879 114.972 40.8117 114.79 40.9931C114.621 41.1625 114.403 41.2471 114.137 41.2471ZM116.565 45.4749C116.299 45.4749 116.075 45.3842 115.894 45.2027C115.724 45.0334 115.639 44.8156 115.639 44.5495V36.2754C115.652 35.3198 115.875 34.461 116.311 33.6989C116.746 32.9368 117.339 32.338 118.089 31.9025C118.839 31.455 119.686 31.2312 120.629 31.2312C121.585 31.2312 122.438 31.455 123.188 31.9025C123.938 32.338 124.53 32.9368 124.966 33.6989C125.414 34.461 125.637 35.3198 125.637 36.2754C125.637 37.2311 125.432 38.0899 125.02 38.852C124.621 39.602 124.071 40.2008 123.369 40.6484C122.668 41.0838 121.875 41.3016 120.992 41.3016C120.279 41.3016 119.619 41.1564 119.014 40.8661C118.422 40.5637 117.914 40.1585 117.49 39.6504V44.5495C117.49 44.8156 117.406 45.0334 117.236 45.2027C117.067 45.3842 116.843 45.4749 116.565 45.4749ZM120.629 39.6685C121.246 39.6685 121.797 39.5234 122.281 39.2331C122.764 38.9307 123.145 38.5254 123.424 38.0174C123.714 37.4972 123.859 36.9166 123.859 36.2754C123.859 35.6222 123.714 35.0416 123.424 34.5335C123.145 34.0134 122.764 33.6081 122.281 33.3178C121.797 33.0154 121.246 32.8642 120.629 32.8642C120.025 32.8642 119.474 33.0154 118.978 33.3178C118.494 33.6081 118.113 34.0134 117.835 34.5335C117.557 35.0416 117.418 35.6222 117.418 36.2754C117.418 36.9166 117.557 37.4972 117.835 38.0174C118.113 38.5254 118.494 38.9307 118.978 39.2331C119.474 39.5234 120.025 39.6685 120.629 39.6685ZM127.146 45.4749C126.879 45.4749 126.656 45.3842 126.474 45.2027C126.305 45.0334 126.22 44.8156 126.22 44.5495V36.2754C126.232 35.3198 126.456 34.461 126.892 33.6989C127.327 32.9368 127.92 32.338 128.67 31.9025C129.42 31.455 130.267 31.2312 131.21 31.2312C132.166 31.2312 133.019 31.455 133.769 31.9025C134.518 32.338 135.111 32.9368 135.547 33.6989C135.994 34.461 136.218 35.3198 136.218 36.2754C136.218 37.2311 136.012 38.0899 135.601 38.852C135.202 39.602 134.652 40.2008 133.95 40.6484C133.248 41.0838 132.456 41.3016 131.573 41.3016C130.859 41.3016 130.2 41.1564 129.595 40.8661C129.002 40.5637 128.494 40.1585 128.071 39.6504V44.5495C128.071 44.8156 127.986 45.0334 127.817 45.2027C127.648 45.3842 127.424 45.4749 127.146 45.4749ZM131.21 39.6685C131.827 39.6685 132.377 39.5234 132.861 39.2331C133.345 38.9307 133.726 38.5254 134.004 38.0174C134.295 37.4972 134.44 36.9166 134.44 36.2754C134.44 35.6222 134.295 35.0416 134.004 34.5335C133.726 34.0134 133.345 33.6081 132.861 33.3178C132.377 33.0154 131.827 32.8642 131.21 32.8642C130.605 32.8642 130.055 33.0154 129.559 33.3178C129.075 33.6081 128.694 34.0134 128.416 34.5335C128.138 35.0416 127.998 35.6222 127.998 36.2754C127.998 36.9166 128.138 37.4972 128.416 38.0174C128.694 38.5254 129.075 38.9307 129.559 39.2331C130.055 39.5234 130.605 39.6685 131.21 39.6685Z" fill="currentColor"/>
</g>
</svg>
