<svg width="186" height="78" viewBox="0 0 186 78" fill="none" xmlns="http://www.w3.org/2000/svg">
  <path d="M14.8765 72.9583L14.8826 72.9619L14.8888 72.9655C18.9082 75.2994 23.433 76.4554 28.4325 76.4554C33.4907 76.4554 38.0468 75.3007 42.0686 72.9655L42.0747 72.9619L42.0808 72.9583C46.0778 70.573 49.2428 67.3437 51.5629 63.2858C53.9575 59.2061 55.1448 54.62 55.1448 49.5581C55.1448 44.5158 54.059 39.9721 51.8596 35.9572C49.7324 31.9003 46.7874 28.6915 43.0296 26.3576C39.2526 23.9497 34.9921 22.7533 30.2821 22.7533C26.4724 22.7533 22.9305 23.5616 19.675 25.1885C17.4309 26.2882 15.4117 27.6812 13.6205 29.365V7.38648C13.6205 5.70856 13.0999 4.24701 11.978 3.12506C10.856 2.0031 9.39448 1.48254 7.71656 1.48254C6.08319 1.48254 4.64604 2.01258 3.48457 3.09662L3.46961 3.11058L3.45513 3.12506C2.33318 4.24701 1.81261 5.70856 1.81261 7.38648V49.5581V49.5656L1.81271 49.5731C1.87668 54.627 3.06259 59.2051 5.39088 63.2796C7.71133 67.3404 10.8775 70.5718 14.8765 72.9583ZM41.6378 57.8577L41.6326 57.8669L41.6276 57.8763C40.3057 60.3477 38.5079 62.2854 36.2281 63.7125C33.9656 65.0676 31.3783 65.7573 28.4325 65.7573C25.5552 65.7573 22.9637 65.0708 20.6313 63.7091C18.3541 62.2823 16.5582 60.3457 15.2373 57.8763C13.9193 55.4122 13.2506 52.6478 13.2506 49.5581C13.2506 46.4023 13.9211 43.6435 15.2317 41.2502C16.5514 38.8404 18.347 36.9626 20.6275 35.5943L20.6275 35.5943L20.6348 35.5899C22.9685 34.1669 25.5584 33.4514 28.4325 33.4514C31.3731 33.4514 33.9568 34.1691 36.219 35.583L36.2281 35.5887L36.2374 35.5943C38.5179 36.9626 40.3135 38.8404 41.6332 41.2502L41.6383 41.2596L41.6437 41.269C43.0093 43.6589 43.7068 46.4108 43.7068 49.5581C43.7068 52.6391 43.0113 55.3968 41.6378 57.8577ZM74.1151 70.3665V56.7684L77.3914 53.8443L94.2 74.6275L94.2017 74.6295C95.189 75.8447 96.4676 76.5492 97.9921 76.6372C99.5352 76.7846 100.945 76.3449 102.161 75.3572L102.167 75.3522C103.402 74.3353 104.168 73.0715 104.261 71.5718C104.411 70.0712 103.958 68.693 102.981 67.4906L85.7975 46.3418L101.925 31.9476L101.935 31.9388L101.945 31.9298C103.06 30.8889 103.719 29.6266 103.8 28.1682C103.882 26.6966 103.336 25.3784 102.295 24.2563C101.295 23.1103 100.018 22.4646 98.5167 22.3851C97.0431 22.3037 95.7235 22.8516 94.6005 23.8957L74.1151 42.1791V7.20152C74.1151 5.58521 73.5935 4.18221 72.473 3.12463C71.4154 2.00416 70.0124 1.48254 68.3961 1.48254C66.7631 1.48254 65.3387 2.01349 64.2271 3.12506C63.16 4.19213 62.6771 5.59655 62.6771 7.20152V70.3665C62.6771 71.9739 63.1603 73.3877 64.1966 74.5038L64.2266 74.536L64.2588 74.5659C65.3748 75.6022 66.7886 76.0855 68.3961 76.0855C70.0011 76.0855 71.4055 75.6025 72.4725 74.5354C73.5841 73.4239 74.1151 71.9994 74.1151 70.3665ZM174.468 74.506L174.496 74.5359L174.526 74.5639C175.687 75.6479 177.124 76.1779 178.758 76.1779C180.436 76.1779 181.897 75.6574 183.019 74.5354L183.034 74.5209L183.048 74.506C184.132 73.3445 184.662 71.9074 184.662 70.274V43.8242C184.662 39.4361 183.868 35.6346 182.222 32.4682C180.646 29.2569 178.393 26.7942 175.46 25.1279C172.547 23.4726 169.226 22.6608 165.533 22.6608C161.349 22.6608 157.573 23.5635 154.234 25.3968L154.225 25.4017C152.382 26.4334 150.765 27.696 149.377 29.1864C148.072 27.5287 146.501 26.172 144.664 25.1279C141.75 23.4726 138.43 22.6608 134.736 22.6608C130.903 22.6608 127.448 23.5732 124.409 25.4234C123.758 25.8193 123.138 26.2486 122.549 26.7111C122.279 26.0233 121.877 25.401 121.334 24.8582C120.212 23.7363 118.75 23.2157 117.072 23.2157C115.439 23.2157 114.002 23.7458 112.84 24.8298L112.826 24.8438L112.811 24.8582C111.689 25.9802 111.169 27.4417 111.169 29.1197V70.274C111.169 71.9074 111.699 73.3445 112.783 74.506L112.811 74.5359L112.84 74.5639C114.002 75.6479 115.439 76.1779 117.072 76.1779C118.75 76.1779 120.212 75.6574 121.334 74.5354L121.348 74.5209L121.362 74.506C122.446 73.3445 122.976 71.9074 122.976 70.274V45.3816V44.1942C122.976 41.0018 123.936 38.471 125.797 36.5012C127.656 34.5321 129.989 33.5439 132.887 33.5439C135.703 33.5439 137.881 34.4063 139.538 36.0631L139.545 36.0699L139.552 36.0767C141.144 37.6169 142.057 40.113 142.057 43.8242V70.274C142.057 71.9074 142.587 73.3445 143.671 74.506L143.699 74.5359L143.729 74.5639C144.891 75.6479 146.328 76.1779 147.961 76.1779C149.639 76.1779 151.101 75.6574 152.223 74.5354L152.237 74.5209L152.251 74.506C153.335 73.3445 153.865 71.9074 153.865 70.274V45.3816V44.1942C153.865 40.9955 154.799 38.4623 156.599 36.4949C158.458 34.53 160.789 33.5439 163.683 33.5439C166.499 33.5439 168.678 34.4063 170.335 36.0631L170.342 36.0699L170.349 36.0767C171.94 37.6169 172.854 40.113 172.854 43.8242V70.274C172.854 71.9074 173.384 73.3445 174.468 74.506Z" fill="white" stroke="white" stroke-width="2.37477"/>
</svg>