<svg width="38" height="38" viewBox="0 0 38 38" fill="none" xmlns="http://www.w3.org/2000/svg">
<g clip-path="url(#clip0_139_692)">
<path d="M2.0542 38.0004C2.0542 35.5807 2.0542 33.1512 2.0542 30.7316C2.0542 26.9732 4.57996 23.9884 8.36859 23.2744C8.83708 23.1851 9.32594 23.1653 9.80461 23.1653C11.261 23.1554 12.7276 23.1554 14.2451 23.1554C14.2451 22.6794 14.2552 22.2133 14.2349 21.7472C14.2349 21.6679 14.133 21.5886 14.0617 21.5291C12.1165 19.9424 11.1693 17.9195 11.1999 15.4503C11.2101 14.0917 11.1999 12.7331 11.2101 11.3647C11.2101 11.1564 11.149 11.0374 10.9656 10.9184C8.85745 9.5896 7.78808 7.15014 8.26675 4.82968C8.76579 2.40014 10.6499 0.56559 13.1451 0.0995152C13.3896 0.0499327 13.6442 0.0102667 13.8988 0.0102667C15.0191 0.000350211 16.1292 0.0102667 17.3106 0.0102667C17.3106 0.42676 17.3106 0.843252 17.3106 1.25975C17.3106 2.40014 17.9013 2.96538 19.0623 2.9753C20.2539 2.98522 21.4557 2.9158 22.6371 3.06455C24.7758 3.32238 26.4359 5.20651 26.4461 7.29889C26.4665 10.1945 26.497 13.0901 26.4359 15.9857C26.3952 18.1872 25.4276 20.0118 23.7065 21.4497C23.4926 21.6282 23.3806 21.7869 23.4009 22.0745C23.4315 22.4315 23.4111 22.7885 23.4111 23.1851C23.5741 23.1851 23.7166 23.1851 23.849 23.1851C25.1425 23.1851 26.4359 23.1851 27.7395 23.1851C32.292 23.1851 35.6121 26.408 35.6121 30.8307C35.6121 33.2305 35.6121 35.6303 35.6121 38.0301C24.4194 38.0004 13.2368 38.0004 2.0542 38.0004ZM11.2203 29.0656C16.3125 29.0656 21.3742 29.0656 26.4257 29.0656C26.4257 28.074 26.4257 27.122 26.4257 26.1204C24.399 26.1204 22.3825 26.1204 20.3456 26.1204C20.3456 25.9419 20.3456 25.813 20.3456 25.6742C20.3456 24.0379 20.3761 22.4116 20.3354 20.7754C20.3252 20.2102 20.4882 19.9127 21.0076 19.6251C22.6065 18.7624 23.3907 17.384 23.4009 15.6089C23.4111 14.4784 23.4009 13.3579 23.4009 12.2274C23.4009 12.1084 23.4009 11.9894 23.4009 11.8803C20.3252 11.8803 17.3004 11.8803 14.2756 11.8803C14.2756 13.3281 14.2756 14.766 14.2756 16.194C14.2756 16.3626 14.3265 16.5411 14.3673 16.6997C14.7135 18.1475 15.6301 19.1491 16.9745 19.8135C17.2189 19.9325 17.3106 20.0813 17.3106 20.3589C17.3004 22.1538 17.3004 23.9487 17.3004 25.7436C17.3004 25.8626 17.3004 25.9816 17.3004 26.1204C15.2431 26.1204 13.2368 26.1204 11.2203 26.1204C11.2203 27.122 11.2203 28.0839 11.2203 29.0656ZM11.2203 35.0056C16.3125 35.0056 21.364 35.0056 26.4155 35.0056C26.4155 34.0139 26.4155 33.0421 26.4155 32.0802C21.3335 32.0802 16.282 32.0802 11.2203 32.0802C11.2203 33.0619 11.2203 34.0139 11.2203 35.0056ZM23.4009 8.90536C23.4009 8.39962 23.4009 7.94346 23.4009 7.4873C23.3907 6.55515 22.7491 5.94033 21.7918 5.93041C20.8446 5.93041 19.8873 5.94033 18.9401 5.93041C16.9134 5.90066 15.4774 4.98835 14.6015 3.20338C14.5506 3.0943 14.3673 2.9753 14.2552 2.9753C13.4507 2.96538 12.7377 3.24304 12.1572 3.78845C11.2406 4.63135 10.9758 5.9205 11.4341 7.06089C11.8313 8.05254 13.0637 8.9252 14.2552 8.91528C17.1476 8.88553 20.04 8.90536 22.9324 8.90536C23.075 8.90536 23.2074 8.90536 23.4009 8.90536ZM8.13435 35.0254C8.13435 32.1397 8.13435 29.2937 8.13435 26.408C8.01214 26.4476 7.92047 26.4576 7.82881 26.5071C6.13819 27.3104 5.19103 28.6094 5.10955 30.444C5.04844 31.8918 5.09937 33.3396 5.09937 34.7874C5.09937 34.8667 5.11974 34.9461 5.12992 35.0353C6.13819 35.0254 7.1159 35.0254 8.13435 35.0254ZM32.5364 35.0155C32.5364 33.409 32.6077 31.8323 32.5161 30.2655C32.4142 28.5202 31.4467 27.2707 29.8273 26.5071C29.7357 26.4675 29.6237 26.4377 29.5218 26.408C29.5218 29.3036 29.5218 32.1496 29.5218 35.0155C30.5301 35.0155 31.518 35.0155 32.5364 35.0155Z" fill="currentColor"/>
</g>
<defs>
<clipPath id="clip0_139_692">
<rect width="38" height="38" fill="white"/>
</clipPath>
</defs>
</svg>
