<svg width="44" height="44" viewBox="0 0 44 44" fill="none" xmlns="http://www.w3.org/2000/svg">
<path d="M36.6666 12.833H7.33329C5.30825 12.833 3.66663 14.4746 3.66663 16.4997V34.833C3.66663 36.8581 5.30825 38.4997 7.33329 38.4997H36.6666C38.6917 38.4997 40.3333 36.8581 40.3333 34.833V16.4997C40.3333 14.4746 38.6917 12.833 36.6666 12.833Z" stroke="currentColor" stroke-width="3" stroke-linecap="round" stroke-linejoin="round"/>
<path d="M29.3333 38.5V9.16667C29.3333 8.19421 28.947 7.26158 28.2594 6.57394C27.5717 5.88631 26.6391 5.5 25.6666 5.5H18.3333C17.3608 5.5 16.4282 5.88631 15.7406 6.57394C15.0529 7.26158 14.6666 8.19421 14.6666 9.16667V38.5" stroke="currentColor" stroke-width="3" stroke-linecap="round" stroke-linejoin="round"/>
</svg>
