<svg width="44" height="44" viewBox="0 0 44 44" fill="none" xmlns="http://www.w3.org/2000/svg">
<path d="M31.1667 38.5V34.8333C31.1667 32.8884 30.3941 31.0232 29.0188 29.6479C27.6436 28.2726 25.7783 27.5 23.8334 27.5H9.16671C7.22179 27.5 5.35652 28.2726 3.98126 29.6479C2.60599 31.0232 1.83337 32.8884 1.83337 34.8333V38.5" stroke="currentColor" stroke-width="3" stroke-linecap="round" stroke-linejoin="round"/>
<path d="M16.5 20.1667C20.55 20.1667 23.8333 16.8834 23.8333 12.8333C23.8333 8.78325 20.55 5.5 16.5 5.5C12.4499 5.5 9.16663 8.78325 9.16663 12.8333C9.16663 16.8834 12.4499 20.1667 16.5 20.1667Z" stroke="currentColor" stroke-width="3" stroke-linecap="round" stroke-linejoin="round"/>
<path d="M42.1666 38.4999V34.8333C42.1654 33.2084 41.6246 31.63 40.6291 30.3459C39.6336 29.0617 38.2399 28.1445 36.6666 27.7383" stroke="currentColor" stroke-width="3" stroke-linecap="round" stroke-linejoin="round"/>
<path d="M29.3334 5.73828C30.9108 6.14217 32.3089 7.05957 33.3074 8.34585C34.3058 9.63213 34.8478 11.2141 34.8478 12.8424C34.8478 14.4708 34.3058 16.0528 33.3074 17.339C32.3089 18.6253 30.9108 19.5427 29.3334 19.9466" stroke="currentColor" stroke-width="3" stroke-linecap="round" stroke-linejoin="round"/>
</svg>
