<svg width="44" height="44" viewBox="0 0 44 44" fill="none" xmlns="http://www.w3.org/2000/svg">
<path d="M30.25 17.2337L13.75 7.71875" stroke="currentColor" stroke-width="3" stroke-linecap="round" stroke-linejoin="round"/>
<path d="M38.5 29.3338V14.6671C38.4993 14.0241 38.3296 13.3926 38.0078 12.8359C37.686 12.2792 37.2235 11.817 36.6667 11.4955L23.8333 4.16214C23.2759 3.84032 22.6436 3.6709 22 3.6709C21.3564 3.6709 20.7241 3.84032 20.1667 4.16214L7.33333 11.4955C6.77648 11.817 6.31396 12.2792 5.99218 12.8359C5.6704 13.3926 5.50066 14.0241 5.5 14.6671V29.3338C5.50066 29.9768 5.6704 30.6083 5.99218 31.165C6.31396 31.7217 6.77648 32.184 7.33333 32.5055L20.1667 39.8388C20.7241 40.1606 21.3564 40.33 22 40.33C22.6436 40.33 23.2759 40.1606 23.8333 39.8388L36.6667 32.5055C37.2235 32.184 37.686 31.7217 38.0078 31.165C38.3296 30.6083 38.4993 29.9768 38.5 29.3338Z" stroke="currentColor" stroke-width="3" stroke-linecap="round" stroke-linejoin="round"/>
<path d="M5.995 12.7598L22 22.0181L38.005 12.7598" stroke="currentColor" stroke-width="3" stroke-linecap="round" stroke-linejoin="round"/>
<path d="M22 40.48V22" stroke="currentColor" stroke-width="3" stroke-linecap="round" stroke-linejoin="round"/>
</svg>
