<svg width="156" height="144" viewBox="0 0 156 144" fill="none" xmlns="http://www.w3.org/2000/svg">
<path d="M50.3063 16.1886C62.7683 -5.39631 93.9235 -5.39631 106.386 16.1886L151.56 94.4339C164.023 116.019 148.445 143 123.521 143H33.171C8.24689 143 -7.33069 116.019 5.13136 94.4339L50.3063 16.1886Z" fill="currentColor" fill-opacity="0.12"/>
<g clip-path="url(#clip0_791_1641)">
<path d="M48.6917 83.2174C47.5119 83.2174 46.4374 83.2174 45.3418 83.2174C43.3403 83.2174 42.3711 82.1943 42.3711 80.1259C42.3711 76.7453 42.3711 73.3646 42.3711 69.9618C42.3711 65.6693 43.7195 61.9105 46.4374 58.7301C48.6285 56.1501 50.8618 53.5924 53.0529 51.0124C54.4856 49.3444 56.2132 48.5659 58.3623 48.5659C72.0569 48.5882 85.7516 48.5882 99.4673 48.5659C101.785 48.5659 103.618 49.4778 105.051 51.4128C106.926 53.926 108.822 56.3948 110.718 58.8857C113.141 62.044 114.342 65.647 114.321 69.7171C114.3 73.209 114.321 76.7008 114.321 80.2149C114.321 82.1943 113.331 83.2174 111.434 83.2397C110.76 83.2397 110.065 83.2397 109.264 83.2397C109.264 83.5955 109.264 83.9069 109.264 84.2405C109.264 93.6262 109.264 102.99 109.264 112.375C109.264 116.201 107.052 119.292 103.639 120.249C102.944 120.449 102.185 120.538 101.469 120.538C86.489 120.56 71.4881 120.56 56.5082 120.538C51.9784 120.538 48.6917 117.068 48.6917 112.286C48.6917 102.967 48.6917 93.6485 48.6917 84.3072C48.6917 83.9736 48.6917 83.64 48.6917 83.2174ZM65.0832 115.178C65.0832 114.777 65.0832 114.488 65.0832 114.177C65.0832 110.552 65.0832 106.904 65.0832 103.279C65.1042 97.2515 69.5287 92.5809 75.2383 92.5364C77.6823 92.5142 80.1262 92.5364 82.5702 92.5364C88.4273 92.5586 92.8307 97.207 92.8518 103.39C92.8518 106.993 92.8518 110.596 92.8518 114.221C92.8518 114.511 92.8518 114.822 92.8518 115.178C93.1889 115.178 93.4417 115.178 93.6945 115.178C96.2017 115.178 98.6878 115.178 101.195 115.178C103.281 115.178 104.208 114.199 104.208 111.975C104.208 102.701 104.208 93.4483 104.208 84.1738C104.208 83.8846 104.208 83.5733 104.208 83.2619C87.3318 83.2619 70.561 83.2619 53.7271 83.2619C53.7271 83.6178 53.7271 83.9069 53.7271 84.2183C53.7271 89.9564 53.7271 95.6946 53.7271 101.455C53.7271 105.08 53.7271 108.728 53.7271 112.353C53.7271 113.91 54.6963 115.133 56.0658 115.156C59.0365 115.222 62.0071 115.178 65.0832 115.178ZM89.0594 77.8573C89.0594 74.321 89.1015 70.8959 89.0383 67.4485C89.0173 65.8917 88.5327 64.3793 87.7742 63.0448C86.1519 60.1535 84.5085 57.2844 82.8441 54.4375C82.6966 54.1929 82.3174 53.9705 82.0435 53.9705C79.9998 53.926 77.9351 53.926 75.8914 53.9705C75.6175 53.9705 75.2383 54.1929 75.0908 54.4375C73.4264 57.3289 71.783 60.2202 70.1607 63.1338C69.3601 64.5572 68.9177 66.1363 68.8966 67.8044C68.8545 71.0516 68.8756 74.2988 68.8756 77.546C68.8756 77.6572 68.9177 77.7461 68.9388 77.8573C75.6597 77.8573 82.3174 77.8573 89.0594 77.8573ZM69.4655 53.9705C65.4835 53.9705 61.7122 53.9482 57.9198 53.9927C57.5406 53.9927 57.0771 54.3263 56.8032 54.66C54.5699 57.2177 52.3577 59.8199 50.1455 62.4221C48.8392 63.9345 47.9122 65.6915 47.6593 67.7154C47.4276 69.5392 47.4697 71.4074 47.4276 73.2757C47.3855 74.7881 47.4276 76.3005 47.4276 77.8573C52.9265 77.8573 58.3623 77.8573 63.8401 77.8573C63.8401 74.7658 63.8191 71.7188 63.8612 68.6718C63.8612 67.6265 63.9455 66.5589 64.0929 65.5358C64.3879 63.4452 65.1675 61.5547 66.1998 59.7531C67.2743 57.8849 68.3067 55.9944 69.4655 53.9705ZM88.5327 53.9038C88.7012 54.2596 88.8066 54.482 88.954 54.7267C89.9021 56.417 90.8713 58.1073 91.8405 59.7976C93.3995 62.4888 94.158 65.4024 94.137 68.5828C94.1159 71.3852 94.137 74.1876 94.137 76.9899C94.137 77.2791 94.137 77.5682 94.137 77.8573C99.2356 77.8573 104.229 77.8573 109.285 77.8573C109.285 77.546 109.285 77.2791 109.285 77.0122C109.285 74.6324 109.264 72.2304 109.285 69.8506C109.306 66.9592 108.464 64.4015 106.736 62.1774C104.84 59.7309 102.965 57.2622 101.111 54.7712C100.668 54.1707 100.163 53.9038 99.4252 53.9038C96.0542 53.926 92.7043 53.926 89.3333 53.926C89.1015 53.9038 88.8698 53.9038 88.5327 53.9038ZM87.8163 115.156C87.8163 111.174 87.8163 107.304 87.8163 103.412C87.8163 100.143 85.6463 97.8742 82.5492 97.8742C80.1895 97.8742 77.8298 97.8742 75.449 97.8742C72.2887 97.8742 70.1397 100.143 70.1397 103.457C70.1397 107.127 70.1397 110.774 70.1397 114.444C70.1397 114.688 70.1607 114.911 70.1818 115.156C76.0811 115.156 81.896 115.156 87.8163 115.156Z" fill="currentColor"/>
</g>
<defs>
<clipPath id="clip0_791_1641">
<rect width="71.9497" height="71.9497" fill="white" transform="translate(42.3711 48.5659)"/>
</clipPath>
</defs>
</svg>
