<svg width="38" height="38" viewBox="0 0 38 38" fill="none" xmlns="http://www.w3.org/2000/svg">
<g clip-path="url(#clip0_7_592)">
<path d="M5.15976 0C5.87791 0.158623 6.59605 0.346987 7.2116 0.773285C8.14519 1.40778 8.78126 2.25046 9.07877 3.32116C10.4945 8.32768 11.9 13.3243 13.2953 18.3308C13.4081 18.7274 13.5723 18.8166 13.9724 18.8166C18.1582 18.8067 22.3439 18.8166 26.5296 18.8067C28.3353 18.7968 29.7716 19.4412 30.7257 20.9481C31.8029 22.6434 31.6182 24.6757 30.2845 26.1926C30.2024 26.2818 30.1306 26.4701 30.1717 26.5693C30.8385 28.215 31.9362 29.484 33.6495 30.1879C34.5216 30.5448 35.4346 30.6835 36.3785 30.6736C37.507 30.6538 38.2354 31.5758 37.9379 32.587C37.7532 33.2215 37.1889 33.6082 36.4298 33.628C32.5005 33.737 29.0637 31.5956 27.4735 28.0266C27.3504 27.749 27.2068 27.6796 26.9092 27.6796C25.473 27.6995 24.0469 27.6895 22.6106 27.6995C22.5286 27.6995 22.4362 27.7193 22.3234 27.7292C22.4362 29.3848 22.4773 31.0305 23.1852 32.5672C23.9751 34.2724 25.473 34.9069 27.2786 35.0258C27.4838 35.0358 27.6889 35.0358 27.8941 35.0358C28.7662 35.0655 29.433 35.7198 29.4227 36.5328C29.4125 37.3556 28.7456 37.9901 27.8633 38C24.642 38.0099 21.4103 38 18.1889 38C14.9162 38 11.6333 38 8.36063 38C7.30393 38 6.58579 37.197 6.77046 36.2254C6.90382 35.5315 7.51938 35.0457 8.31959 35.0358C9.16085 35.0258 9.98158 34.9366 10.7613 34.6392C11.9616 34.1832 12.7105 33.3206 13.1517 32.1706C13.5518 31.1198 13.6749 30.0094 13.7672 28.899C13.798 28.5223 13.8185 28.1357 13.8493 27.7391C13.2337 27.6995 12.6285 27.6995 12.0539 27.6003C8.20674 26.9658 5.60091 24.8839 4.52369 21.2554C3.00533 16.1002 1.61008 10.8954 0.173798 5.71041C-0.554604 3.09314 1.04583 0.624576 3.80555 0.0594835C3.85685 0.0495696 3.89788 0.0198278 3.93892 0C4.33903 0 4.7494 0 5.15976 0ZM19.8304 24.7253C21.1949 24.7352 22.5696 24.7352 23.9341 24.7352C24.8984 24.7352 25.8525 24.7451 26.8169 24.7253C27.5658 24.7154 28.1198 24.299 28.284 23.6447C28.5405 22.6235 27.8633 21.8007 26.7143 21.7709C25.9551 21.7511 25.2062 21.7709 24.447 21.7709C20.8255 21.7709 17.204 21.7709 13.5826 21.7709C11.9308 21.7709 10.8844 20.9977 10.4535 19.4709C10.2791 18.8563 10.1047 18.2317 9.93029 17.617C8.66841 13.1458 7.41678 8.67467 6.1549 4.21341C5.89842 3.29142 5.07769 2.79572 4.22618 3.01383C3.33363 3.25176 2.89248 4.0647 3.14896 4.99661C3.66192 6.86043 4.18514 8.71433 4.6981 10.5781C5.62143 13.8795 6.52424 17.1808 7.46808 20.4821C8.18622 22.9804 10.4227 24.6757 13.1106 24.7253C15.3574 24.755 17.5939 24.7253 19.8304 24.7253ZM16.9168 27.7094C16.7834 30.2573 16.5475 32.7754 15.0394 34.9961C17.0809 34.9961 19.0712 34.9961 21.1025 34.9961C19.5842 32.7556 19.3585 30.2473 19.2251 27.7094C18.4454 27.7094 17.6965 27.7094 16.9168 27.7094Z" fill="currentColor"/>
<path d="M27.1972 15.3766C27.1972 16.0706 26.6842 16.6952 26.0276 16.8439C25.3198 17.0025 24.6016 16.6753 24.2938 16.0508C24.222 15.912 24.181 15.7533 24.1194 15.5947C23.7091 14.4645 22.6421 13.6615 21.4008 13.6417C19.5438 13.6119 17.6869 13.6318 15.8403 13.6219C14.9375 13.6219 14.3117 13.1361 14.1885 12.333C14.0654 11.5598 14.6707 10.6973 15.4812 10.6873C17.7382 10.6675 20.026 10.5386 22.2625 10.7865C24.776 11.074 26.3867 12.6404 27.1459 14.99C27.1664 15.0594 27.1869 15.1288 27.1972 15.2081C27.1972 15.2874 27.1972 15.3469 27.1972 15.3766Z" fill="currentColor"/>
</g>
<defs>
<clipPath id="clip0_7_592">
<rect width="38" height="38" fill="white"/>
</clipPath>
</defs>
</svg>
