<svg width="38" height="38" viewBox="0 0 38 38" fill="none" xmlns="http://www.w3.org/2000/svg">
<g clip-path="url(#clip0_7_609)">
<path d="M29.9024 38.0001C30.2592 37.9307 30.6259 37.8713 30.9827 37.7919C35.0563 36.8898 37.9603 33.3307 37.9801 29.1569C38 25.0625 38 20.968 37.9801 16.8736C37.9504 11.9761 34.0156 8.04031 29.1194 8.02048C22.3797 8.00065 15.64 7.99074 8.91022 8.02048C5.86745 8.03039 3.42926 9.32912 1.63531 11.7878C1.08028 12.5511 1.1893 13.4434 1.89301 13.949C2.59671 14.4546 3.47882 14.2861 4.03385 13.5326C5.28268 11.8274 6.9676 10.9748 9.07872 10.9748C15.7292 10.9748 22.3797 10.9748 29.0302 10.9748C31.954 10.9748 34.3427 12.9378 34.9175 15.793C34.9968 16.1697 35.0266 16.5564 35.0266 16.9331C35.0365 20.968 35.0365 24.9931 35.0266 29.028C35.0166 32.3789 32.4001 35.0061 29.05 35.016C23.3907 35.026 17.7214 35.016 12.062 35.016C11.2096 35.016 10.6645 35.3829 10.4663 36.0669C10.2383 36.8799 10.6249 37.6234 11.4178 37.901C11.4773 37.9208 11.5268 37.9506 11.5764 37.9803C17.6817 38.0001 23.797 38.0001 29.9024 38.0001Z" fill="currentColor"/>
<path d="M-2.86102e-05 32.4384C0.0693493 32.6862 0.128819 32.934 0.208109 33.1819C0.832521 35.244 2.70576 36.5328 4.82678 36.3643C6.87842 36.1957 8.54352 34.6095 8.84086 32.5276C9.02918 31.1793 8.75166 30.2573 7.70106 28.8495C8.23627 28.6116 8.75166 28.3736 9.28687 28.1655C9.37607 28.1258 9.51483 28.2051 9.62386 28.2547C11.4376 29.0676 13.2415 29.8905 15.0652 30.6836C15.3625 30.8125 15.7391 30.8819 16.0662 30.8323C16.7204 30.753 17.1961 30.1879 17.2655 29.5534C17.3349 28.9288 17.0078 28.334 16.4032 28.0465C15.4319 27.5904 14.4507 27.1642 13.4694 26.718C13.3505 26.6585 13.2217 26.609 13.0433 26.5197C13.182 26.4504 13.2811 26.3909 13.3902 26.3512C14.3714 25.9249 15.3625 25.4986 16.3437 25.0624C16.9979 24.765 17.3448 24.1999 17.2853 23.5654C17.2258 22.921 16.7798 22.3361 16.1653 22.2469C15.8085 22.1973 15.3922 22.2568 15.0553 22.3956C13.2415 23.1589 11.4475 23.952 9.65359 24.7452C9.43554 24.8443 9.27696 24.8344 9.06882 24.7352C8.6129 24.5171 8.14707 24.3189 7.67133 24.1008C7.83982 23.8727 7.9984 23.6745 8.14707 23.4564C9.18776 21.8999 9.17785 20.046 8.11734 18.5192C7.06674 16.9925 5.21332 16.239 3.48875 16.6356C1.71463 17.0421 0.356779 18.4796 0.0594387 20.274C0.0495281 20.3434 0.0197926 20.4128 -0.0099411 20.4822C-0.0099411 20.7994 -0.0099411 21.1266 -0.0099411 21.4438C0.00988197 21.5231 0.0495281 21.6024 0.0594387 21.6917C0.336956 23.1986 1.11004 24.3387 2.50753 25.0128C2.98328 25.2409 3.46893 25.459 3.95459 25.687C4.50962 25.9447 5.05474 26.1926 5.65933 26.4702C5.49084 26.5495 5.38181 26.5991 5.26288 26.6486C4.35104 27.065 3.42929 27.4517 2.53727 27.8879C1.34791 28.453 0.555002 29.375 0.168461 30.634C0.099081 30.8521 0.0495262 31.0801 -0.0099411 31.3082C-3.05176e-05 31.6948 -2.86102e-05 32.0616 -2.86102e-05 32.4384ZM4.46997 30.4357C5.2827 30.4457 5.94676 31.1099 5.93685 31.9327C5.92694 32.7457 5.25297 33.4099 4.44024 33.4099C3.64733 33.4 2.96345 32.706 2.96345 31.9129C2.97336 31.0901 3.64734 30.4258 4.46997 30.4357ZM4.46006 22.4947C3.66716 22.4947 2.97336 21.8106 2.96345 21.0175C2.96345 20.2046 3.62751 19.5304 4.44024 19.5304C5.26288 19.5304 5.93685 20.2046 5.92694 21.0473C5.92694 21.8206 5.25297 22.4947 4.46006 22.4947Z" fill="currentColor"/>
<path d="M10.3672 3.62944e-05C7.95879 0.0099502 5.94678 2.00265 5.93687 4.38198C5.93687 5.25441 6.55137 5.92855 7.38393 5.93847C8.20657 5.95829 8.85081 5.33372 8.90036 4.48112C8.94992 3.57896 9.56442 2.96429 10.4069 2.97421C11.2196 2.98412 11.8242 3.59878 11.8738 4.48112C11.9233 5.33372 12.5676 5.95829 13.3902 5.93847C14.2029 5.91864 14.8373 5.26432 14.8373 4.41172C14.8571 2.01256 12.8153 -0.00987761 10.3672 3.62944e-05Z" fill="currentColor"/>
<path d="M27.5038 0.0297746C25.0656 -0.0197949 23.1032 1.84402 23.014 4.31258C22.9843 5.22466 23.569 5.88889 24.4313 5.92855C25.2837 5.9682 25.918 5.36346 25.9775 4.4712C26.0469 3.38067 26.9983 2.69661 27.9597 3.06343C28.604 3.30136 28.9112 3.80697 28.9509 4.49103C29.0004 5.52208 29.8825 6.14665 30.8637 5.85915C31.5476 5.66087 31.9441 5.04621 31.8945 4.2531C31.7459 1.81428 29.9519 0.0793441 27.5038 0.0297746Z" fill="currentColor"/>
<path d="M26.4137 16.8141C26.4037 17.865 27.1966 18.6779 28.2373 18.6977C29.2978 18.7176 30.1205 17.8947 30.1205 16.8339C30.1205 15.8326 29.278 14.9998 28.277 14.9998C27.266 14.9899 26.4236 15.8128 26.4137 16.8141Z" fill="currentColor"/>
<path d="M21.8841 14.9897C20.8732 14.9897 20.0406 15.8225 20.0406 16.8238C20.0406 17.8747 20.8434 18.6876 21.8841 18.6876C22.9447 18.6976 23.7574 17.8648 23.7475 16.804C23.7376 15.8126 22.8852 14.9897 21.8841 14.9897Z" fill="currentColor"/>
<path d="M13.6577 16.8339C13.6577 17.8848 14.4605 18.6878 15.5012 18.6977C16.5617 18.6977 17.3744 17.8749 17.3645 16.8141C17.3546 15.8128 16.5122 14.9899 15.5012 14.9998C14.4803 14.9998 13.6577 15.8326 13.6577 16.8339Z" fill="currentColor"/>
<path d="M28.277 21.3745C27.266 21.3745 26.4236 22.1874 26.4137 23.1888C26.4037 24.2595 27.2165 25.0823 28.277 25.0724C29.3177 25.0724 30.1205 24.2595 30.1205 23.2086C30.1205 22.2172 29.2879 21.3844 28.277 21.3745Z" fill="currentColor"/>
<path d="M21.8841 21.3745C20.8732 21.3745 20.0406 22.2073 20.0406 23.2086C20.0406 24.2595 20.8434 25.0724 21.8841 25.0724C22.9447 25.0823 23.7574 24.2495 23.7475 23.1888C23.7376 22.1974 22.8951 21.3745 21.8841 21.3745Z" fill="currentColor"/>
<path d="M26.4137 29.603C26.4137 30.6539 27.2165 31.4569 28.2671 31.4668C29.3276 31.4668 30.1403 30.644 30.1205 29.5733C30.1106 28.572 29.2582 27.759 28.2473 27.759C27.2462 27.7689 26.4137 28.6017 26.4137 29.603Z" fill="currentColor"/>
<path d="M20.0406 29.5832C20.0307 30.6341 20.8236 31.447 21.8742 31.4668C22.9347 31.4867 23.7574 30.6638 23.7475 29.5931C23.7475 28.5918 22.905 27.759 21.904 27.759C20.8831 27.759 20.0406 28.5819 20.0406 29.5832Z" fill="currentColor"/>
</g>
<defs>
<clipPath id="clip0_7_609">
<rect width="38" height="38" fill="white" transform="matrix(-1 0 0 1 38 0)"/>
</clipPath>
</defs>
</svg>
