<svg width="157" height="144" viewBox="0 0 157 144" fill="none" xmlns="http://www.w3.org/2000/svg">
<path d="M50.4045 16.2209C62.8914 -5.40698 94.1086 -5.40701 106.596 16.2209L151.86 94.622C164.347 116.25 148.739 143.285 123.765 143.285H33.2351C8.26139 143.285 -7.34724 116.25 5.13963 94.6221L50.4045 16.2209Z" fill="currentColor" fill-opacity="0.12"/>
<g clip-path="url(#clip0_791_1630)">
<path d="M41.5523 63.3162C41.7808 62.2501 41.9521 61.1649 42.2377 60.1368C44.3129 52.9021 50.9384 47.8188 58.4777 47.7997C71.5192 47.7616 84.5606 47.7426 97.6021 47.7997C106.893 47.8378 114.432 55.3961 114.527 64.687C114.566 69.4657 114.547 74.2444 114.527 79.0041C114.527 80.7366 113.29 81.9931 111.653 81.9931C110.015 81.9741 108.835 80.7175 108.835 78.966C108.835 74.3015 108.835 69.6561 108.835 64.9916C108.816 59.4133 105.084 54.825 99.6202 53.7017C98.8587 53.5494 98.0591 53.4923 97.2785 53.4923C84.4655 53.4732 71.6334 53.4732 58.8014 53.4923C52.2711 53.4923 47.2639 58.5185 47.2639 65.0487C47.2639 77.8427 47.2639 90.6557 47.2639 103.45C47.2639 110.018 52.2901 115.025 58.8775 115.025C62.7804 115.025 66.6643 115.025 70.5672 115.025C72.2998 115.025 73.4611 115.901 73.7467 117.386C74.0132 118.814 73.2136 120.032 71.6144 120.642C71.5763 120.661 71.5382 120.699 71.5001 120.718C66.7024 120.718 61.9047 120.718 57.1069 120.718C56.9546 120.68 56.8023 120.604 56.6309 120.584C49.8913 119.804 44.1416 114.949 42.2758 108.438C41.9712 107.372 41.7998 106.267 41.5714 105.182C41.5523 91.2459 41.5523 77.2906 41.5523 63.3162Z" fill="currentColor"/>
<path d="M81.7429 120.756C79.7438 119.88 79.1917 118.89 79.6296 116.796C80.2579 113.692 80.829 110.551 81.6096 107.486C82.4283 104.249 84.1227 101.45 86.4645 99.0707C89.8914 95.5866 93.3565 92.1215 96.8406 88.6946C99.9439 85.6294 104.513 84.8488 108.435 86.6384C112.357 88.428 114.756 92.3881 114.508 96.7289C114.356 99.2801 113.385 101.527 111.576 103.354C108.111 106.838 104.646 110.342 101.143 113.768C97.9638 116.872 94.099 118.585 89.7582 119.347C87.6258 119.709 85.5316 120.185 83.4183 120.622C83.285 120.641 83.1708 120.718 83.0375 120.775C82.5996 120.756 82.1808 120.756 81.7429 120.756ZM86.0266 114.244C86.9024 114.073 87.721 113.902 88.5207 113.768C91.4145 113.273 94.2132 112.398 96.3646 110.342C100.229 106.667 103.999 102.878 107.731 99.0516C108.892 97.8522 109.101 96.2529 108.568 94.6537C107.483 91.3029 103.314 90.2938 100.782 92.8069C97.564 95.9674 94.4607 99.242 91.1861 102.345C87.8162 105.563 86.6168 109.694 86.0266 114.244Z" fill="currentColor"/>
<path d="M66.2455 59.1846C70.948 59.2037 74.7938 63.0685 74.7748 67.7711C74.7557 72.4736 70.8719 76.3004 66.1693 76.2813C61.5048 76.2623 57.6781 72.3975 57.6781 67.714C57.659 63.0114 61.5239 59.1656 66.2455 59.1846ZM69.0632 67.752C69.0822 66.1909 67.8066 64.8962 66.2455 64.8772C64.6843 64.8582 63.3897 66.1337 63.3706 67.6949C63.3516 69.2561 64.6272 70.5507 66.1884 70.5698C67.7495 70.5888 69.0442 69.3132 69.0632 67.752Z" fill="currentColor"/>
<path d="M68.8538 92.5402C72.2998 92.5402 75.7458 92.5212 79.1727 92.5402C80.6768 92.5402 81.8762 93.6444 82.0285 95.1104C82.1808 96.5574 81.1908 97.871 79.7439 98.1947C79.5345 98.2328 79.325 98.2518 79.1156 98.2518C72.2236 98.2518 65.3507 98.2518 58.4587 98.2518C56.8975 98.2518 55.679 97.1666 55.5458 95.6816C55.4125 94.2156 56.3644 92.9019 57.8304 92.6164C58.135 92.5592 58.4396 92.5592 58.7443 92.5592C62.1141 92.5212 65.4839 92.5402 68.8538 92.5402Z" fill="currentColor"/>
<path d="M91.4146 68.3044C88.5588 68.3044 85.7221 68.3044 82.8663 68.3044C81.0195 68.3044 79.7249 67.124 79.7439 65.4295C79.763 63.7732 81.0385 62.5928 82.8282 62.5928C88.5779 62.5928 94.3085 62.5928 100.058 62.5928C101.848 62.5928 103.123 63.8112 103.104 65.4676C103.085 67.0859 101.829 68.2853 100.077 68.3044C97.2214 68.3044 94.3085 68.3044 91.4146 68.3044Z" fill="currentColor"/>
<path d="M91.5288 72.5881C94.3465 72.5881 97.1832 72.5881 100.001 72.5881C101.848 72.5881 103.142 73.7684 103.142 75.4439C103.142 77.1193 101.848 78.2806 100.001 78.2806C94.2323 78.2806 88.4635 78.2806 82.6948 78.2806C81.1337 78.2806 79.9152 77.1954 79.7819 75.7104C79.6486 74.2635 80.6196 72.9498 82.0666 72.6452C82.3331 72.5881 82.6377 72.5881 82.9233 72.5881C85.7791 72.569 88.6539 72.5881 91.5288 72.5881Z" fill="currentColor"/>
<path d="M66.2264 79.4224C69.6724 79.2701 72.7567 80.222 75.4221 82.4876C76.8119 83.668 77.0213 85.3625 75.9552 86.6381C74.908 87.9137 73.1755 88.0279 71.7857 86.8665C70.3388 85.6481 68.6824 85.0769 66.7976 85.115C66.036 85.134 65.2745 85.0959 64.5129 85.1721C63.066 85.3244 61.7904 85.9146 60.6671 86.8665C59.2773 88.0469 57.5448 87.9517 56.4786 86.6761C55.4125 85.4006 55.6028 83.7061 56.9736 82.5257C59.639 80.2411 62.7423 79.2892 66.2264 79.4224Z" fill="currentColor"/>
<path d="M63.047 102.517C64.5891 102.517 66.1313 102.517 67.6734 102.517C69.3678 102.536 70.6244 103.735 70.6434 105.334C70.6625 106.972 69.4059 108.209 67.6734 108.209C64.6082 108.228 61.562 108.228 58.4968 108.209C56.7833 108.209 55.5267 106.953 55.5458 105.334C55.5648 103.735 56.8214 102.536 58.5158 102.517C60.0008 102.498 61.5239 102.517 63.047 102.517Z" fill="currentColor"/>
</g>
<defs>
<clipPath id="clip0_791_1630">
<rect width="72.9942" height="72.9942" fill="white" transform="translate(41.5523 47.7617)"/>
</clipPath>
</defs>
</svg>
